<?xml version="1.0" encoding="utf-8"?>
<!-- Generator: Adobe Illustrator 25.0.1, SVG Export Plug-In . SVG Version: 6.00 Build 0)  -->
<svg version="1.1" id="Layer_1" xmlns="http://www.w3.org/2000/svg" xmlns:xlink="http://www.w3.org/1999/xlink" x="0px" y="0px"
	 viewBox="0 0 420.4 96.7" style="enable-background:new 0 0 420.4 96.7;" xml:space="preserve" width="100%" height="100%">
<style type="text/css">
	.st0{fill:url(#SVGID_1_);}
	.st1{fill:url(#SVGID_2_);}
	.st2{fill:url(#SVGID_3_);}
	.st3{fill:url(#SVGID_4_);}
	.st4{fill:url(#SVGID_5_);}
	.st5{fill:url(#SVGID_6_);}
	.st6{fill:url(#SVGID_7_);}
	.st7{fill:url(#SVGID_8_);}
	.st8{fill:url(#SVGID_9_);}
	.st9{fill:url(#SVGID_10_);}
	.st10{fill:url(#SVGID_11_);}
	.st11{fill:url(#SVGID_12_);}
	.st12{fill:#606261;}
	.st13{fill:url(#SVGID_13_);}
	.st14{fill:url(#SVGID_14_);}
	.st15{fill:#606161;}
</style>
<g>
	<g>
		<linearGradient id="SVGID_1_" gradientUnits="userSpaceOnUse" x1="142.8264" y1="-7.1677" x2="146.1752" y2="115.0646">
			<stop  offset="0.2795" style="stop-color:#3965AF"/>
			<stop  offset="0.8076" style="stop-color:#253F6B"/>
		</linearGradient>
		<path class="st0" d="M149.8,14.3L162.1,50c1.4,4.2,2.2,4.4,4.1,4.4h1v5.8h-18.8v-5.8h1.9c1.1,0,2.2,0,2.2-1.4
			c0-0.5-0.4-1.9-0.6-2.3l-1.2-3.6h-14.1l-1.3,3.7c-0.1,0.3-0.5,1.5-0.5,2c0,1.2,1.1,1.6,2.5,1.6h1.5v5.8H122v-5.8
			c2.9,0,3.7-0.3,4.9-3.7l12.8-36.4H149.8z M138.2,40.4h11l-5.4-15.9h-0.1L138.2,40.4z"/>
		<linearGradient id="SVGID_2_" gradientUnits="userSpaceOnUse" x1="183.1561" y1="-8.2726" x2="186.505" y2="113.9597">
			<stop  offset="0.2795" style="stop-color:#3965AF"/>
			<stop  offset="0.8076" style="stop-color:#253F6B"/>
		</linearGradient>
		<path class="st1" d="M198.3,41H191v-3c0-1.6,0-4.6-4.1-4.6c-5.9,0-7.1,6.7-7.1,9.6c0,5.8,2.5,10.5,8.5,10.5c3.5,0,6.8-1.3,9.8-3.2
			v7.4c-3.7,2.5-7.7,3.7-12.2,3.7c-13,0-15.4-10.9-15.4-16.2c0-12.9,8.3-18.1,16.7-18.1c0.8,0,5.8,0,11.1,2.8V41z"/>
		<linearGradient id="SVGID_3_" gradientUnits="userSpaceOnUse" x1="216.5061" y1="-9.1863" x2="219.855" y2="113.046">
			<stop  offset="0.2795" style="stop-color:#3965AF"/>
			<stop  offset="0.8076" style="stop-color:#253F6B"/>
		</linearGradient>
		<path class="st2" d="M231.7,41h-7.3v-3c0-1.6,0-4.6-4.1-4.6c-5.9,0-7.1,6.7-7.1,9.6c0,5.8,2.5,10.5,8.5,10.5
			c3.5,0,6.8-1.3,9.8-3.2v7.4c-3.7,2.5-7.7,3.7-12.2,3.7c-13,0-15.4-10.9-15.4-16.2c0-12.9,8.3-18.1,16.7-18.1c0.8,0,5.8,0,11.1,2.8
			V41z"/>
		<linearGradient id="SVGID_4_" gradientUnits="userSpaceOnUse" x1="252.6536" y1="-10.1767" x2="256.0025" y2="112.0556">
			<stop  offset="0.2795" style="stop-color:#3965AF"/>
			<stop  offset="0.8076" style="stop-color:#253F6B"/>
		</linearGradient>
		<path class="st3" d="M249.3,27.7v19.7c0,2.2,0,6.3,4.3,6.3c5.7,0,5.7-6.5,5.7-8.6v-7.5c0-1.9-0.1-2.5-0.6-2.9
			c-0.5-0.3-1.6-0.4-3.5-0.4v-5.3l13.7-1.2v23.6c0,1.8,0.1,2.9,1.8,2.9h2.3v5.2l-13,1c-0.5-1.8-0.6-3-0.6-4.6h-0.1
			c-2.9,5-7.7,5.4-9.7,5.4c-2,0-7.3-0.5-9.4-5.8c-0.7-1.7-0.8-5.7-0.8-6V38.1c0-2.3,0-2.6-0.3-3.1c-0.3-0.6-0.4-0.8-3.6-0.8v-5.3
			L249.3,27.7z"/>
		<linearGradient id="SVGID_5_" gradientUnits="userSpaceOnUse" x1="295.9716" y1="-11.3635" x2="299.3204" y2="110.8689">
			<stop  offset="0.2795" style="stop-color:#3965AF"/>
			<stop  offset="0.8076" style="stop-color:#253F6B"/>
		</linearGradient>
		<path class="st4" d="M317.9,14.8v13.5h-7.5v-3.7c0-2.3-0.1-2.7-2.9-2.7h-5.7v29.4c0,2.3,0.1,3.1,3.1,3.1h1.7v5.8h-19.8v-5.8h2
			c2.9,0,2.9-0.9,2.9-3.1V21.9h-5.6c-2.7,0-2.9,0.1-2.9,2.9v3.5h-7.5V14.8H317.9z"/>
		<linearGradient id="SVGID_6_" gradientUnits="userSpaceOnUse" x1="328.0745" y1="-12.243" x2="331.4233" y2="109.9893">
			<stop  offset="0.2795" style="stop-color:#3965AF"/>
			<stop  offset="0.8076" style="stop-color:#253F6B"/>
		</linearGradient>
		<path class="st5" d="M335,50.9c0,3.9,0,4,3.6,4v5.4h-17.3v-5.4h1.6c2.5,0,2.5-0.5,2.5-4.1V39c0-4.1,0-4.9-2-4.9
			c-0.7,0-0.8,0-2.4,0.1v-5.3l13.9-1.2V50.9z M335.3,18.2c0,3.6-3.3,4.9-5.8,4.9c-2.4,0-6.1-0.9-6.1-4.8c0-1.7,1-4.8,6-4.8
			C333.9,13.5,335.3,16,335.3,18.2z"/>
		<linearGradient id="SVGID_7_" gradientUnits="userSpaceOnUse" x1="350.6588" y1="-12.8617" x2="354.0076" y2="109.3706">
			<stop  offset="0.2795" style="stop-color:#3965AF"/>
			<stop  offset="0.8076" style="stop-color:#253F6B"/>
		</linearGradient>
		<path class="st6" d="M354.9,18.2v10h7.7V35h-7.7v13.2c0,2,0,5.1,3.1,5.1c1.6,0,3.5-0.8,4.8-1.2v6.7c-4.3,2.2-7.9,2.2-9.2,2.2
			c-8.6,0-8.6-6.8-8.6-9.7V35h-3.9v-5.6c7-2.2,7.7-8.8,7.9-11.2H354.9z"/>
		<linearGradient id="SVGID_8_" gradientUnits="userSpaceOnUse" x1="373.1944" y1="-13.4791" x2="376.5433" y2="108.7532">
			<stop  offset="0.2795" style="stop-color:#3965AF"/>
			<stop  offset="0.8076" style="stop-color:#253F6B"/>
		</linearGradient>
		<path class="st7" d="M380,50.9c0,3.9,0,4,3.7,4v5.4h-17.1v-5.4h1.3c2.6,0,2.6-0.5,2.6-4.1v-27c0-2.8,0-4-2.4-4h-1.8v-5.2l13.9-1.1
			V50.9z"/>
		<linearGradient id="SVGID_9_" gradientUnits="userSpaceOnUse" x1="401.0771" y1="-14.2431" x2="404.426" y2="107.9893">
			<stop  offset="0.2795" style="stop-color:#3965AF"/>
			<stop  offset="0.8076" style="stop-color:#253F6B"/>
		</linearGradient>
		<path class="st8" d="M397.6,45.6c0.1,3.6,2.4,8.1,8.4,8.1c4.6,0,8.2-2.2,10.9-3.7v7.7c-2.5,1.4-6.8,3.7-13.5,3.7
			c-13,0-15.6-10.6-15.6-16.6c0-8.7,4.8-17.7,15.9-17.7c14.2,0,14.1,14,14.1,18.5H397.6z M408.7,39.8c-0.1-6.9-4.6-6.9-5.2-6.9
			c-3.3,0-5.6,3.1-5.8,6.9H408.7z"/>
	</g>
	<g>
		<g>
			<g>
				<linearGradient id="SVGID_10_" gradientUnits="userSpaceOnUse" x1="41.8281" y1="40.0642" x2="55.9916" y2="57.6375">
					<stop  offset="0.2795" style="stop-color:#3965AF"/>
					<stop  offset="0.8076" style="stop-color:#253F6B"/>
				</linearGradient>
				<circle class="st9" cx="48.6" cy="48.5" r="8.4"/>
			</g>
		</g>
		<g>
			<linearGradient id="SVGID_11_" gradientUnits="userSpaceOnUse" x1="46.287" y1="-15.8452" x2="105.0394" y2="88.5452">
				<stop  offset="0" style="stop-color:#57C8E6"/>
				<stop  offset="1" style="stop-color:#3965AF"/>
			</linearGradient>
			<circle class="st10" cx="66" cy="19.2" r="4.8"/>
		</g>
		<linearGradient id="SVGID_12_" gradientUnits="userSpaceOnUse" x1="-12.2133" y1="-9.4963" x2="46.5391" y2="94.8941">
			<stop  offset="0" style="stop-color:#57C8E6"/>
			<stop  offset="1" style="stop-color:#3965AF"/>
		</linearGradient>
		<circle class="st11" cx="7.5" cy="25.5" r="4.8"/>
		<path class="st12" d="M48.9,25c3.5-1.5,6.8-2.6,9.9-3.3c-0.2-0.6-0.3-1.3-0.4-2c-3.3,0.9-6.7,2.1-10.2,3.6
			c-0.5,0.2-0.7,0.8-0.5,1.2C47.9,25,48.5,25.2,48.9,25z"/>
		<linearGradient id="SVGID_13_" gradientUnits="userSpaceOnUse" x1="50.5608" y1="26.3496" x2="109.3132" y2="130.74">
			<stop  offset="0" style="stop-color:#57C8E6"/>
			<stop  offset="1" style="stop-color:#3965AF"/>
		</linearGradient>
		<circle class="st13" cx="70.3" cy="61.4" r="4.8"/>
		<linearGradient id="SVGID_14_" gradientUnits="userSpaceOnUse" x1="7.196" y1="25.6502" x2="65.9483" y2="130.0406">
			<stop  offset="0" style="stop-color:#57C8E6"/>
			<stop  offset="1" style="stop-color:#3965AF"/>
		</linearGradient>
		<circle class="st14" cx="26.9" cy="60.7" r="4.8"/>
		<path class="st12" d="M84.2,48.7c6.8-8.9,9.3-17.7,5.7-23.8c-2.8-4.7-8.7-7.2-16.5-7.3c0.1,0.5,0.2,1.1,0.2,1.6
			c0,0.4,0,0.9-0.1,1.3c6.1,0.8,10.6,3.4,12.9,7.3c3,5.2,1.6,12.1-3.5,19.3C77.3,40.3,69.3,33.8,60,28.6c-9.2-5.2-18.6-8.6-26.9-10
			c3.6-8,8.7-12.7,14.8-12.7c4.7,0,10,1.5,14,6.9c0.6-0.4,1.3-0.7,2-0.9C59.9,4.9,54.6,1,49.2,1C42,1,35.5,7.8,31.3,18.3
			c-7.4-1-13.8-0.4-18.4,1.9c0.5,0.5,0.8,1,1.2,1.5c4-1.9,9.7-2.2,16.3-1.1C27.7,28.5,26,38,26,48.3c0,1.6,0,3.2,0.1,4.8
			c0.2,0,0.5,0,0.7,0c0.4,0,0.8,0,1.1,0.1c-0.1-1.6-0.1-3.2-0.1-4.8c0-10.8,1.5-20.2,4.2-27.3c8.1,1.6,17.4,5.1,26.7,10.3
			c9.5,5.4,15.6,10.5,22.3,18.1c-1.7,2.1-3.6,4.2-5.9,6.3c0.1,0.1,0.2,0.2,0.4,0.3c0.3,0.3,0.6,0.6,0.8,1c2.2-2,4.2-4.1,5.9-6.2
			c0.4,0.4,0.8,0.9,1.2,1.3c6.1,7.1,7.3,14.1,4.6,18.9c-2.9,5.1-10.4,7.4-20.5,6.3c-0.1,0-0.1,0-0.2,0c1-2.6,1.9-5.4,2.6-8.5
			c-0.6,0-1.3-0.1-1.9-0.3c-3.5,14.6-10.7,22.7-18.8,22.7c-5.9,0-11.3-4.6-15.2-12.4c8.4-1.6,17.7-5.1,26.5-10.3
			c1.3-0.8,2.6-1.6,3.9-2.4c-0.4-0.5-0.7-1-1-1.6c-1.2,0.8-2.5,1.6-3.8,2.3c-8.9,5.2-18.1,8.7-26.4,10.2c-1.3-2.9-2.3-6.1-3.2-9.6
			c-0.6,0.3-1.2,0.5-1.9,0.6c0.8,3.4,1.7,6.5,2.8,9.4c-0.9,0.1-1.7,0.2-2.5,0.3c-9.3,0.8-14.3-2.5-17.1-7.3
			c-3-5.1-2.8-11.7,3.2-19.9c0,0,0,0,0-0.1c1.7,2,3.7,4.1,5.9,6.1c0.3-0.5,0.7-1,1.2-1.5C13.4,47.6,8.4,39.6,7.8,33.1
			c-0.1,0-0.2,0-0.3,0c-0.5,0-1.1-0.1-1.6-0.2c0.4,4.9,3.1,10.6,7.6,16.3c-0.2,0.1-0.3,0.2-0.4,0.3c-6.5,8.8-8.4,17.2-5,23
			c2.8,4.8,8.7,7.3,16.9,7.3c1.2,0,2.4-0.1,3.6-0.2c1-0.1,2.1-0.2,3.1-0.4c4.2,10,10.5,16.4,17.5,16.4c7,0,13.4-6.4,17.7-16.8
			c0.2,0.2,0.4,0.3,0.6,0.3c1.7,0.2,3.4,0.3,5,0.3c8.4,0,14.6-2.6,17.4-7.5c3.1-5.5,1.6-13.1-4.1-21.3C85.2,50,84.7,49.3,84.2,48.7z
			"/>
	</g>
	<g>
		<g>
			<path class="st15" d="M130.3,71.9v2.9h-1.8v-0.6c0-0.6-0.2-0.6-0.8-0.6h-2.4v2.8h1.8c0.3,0,0.3,0,0.3-0.4v-0.5h1.8v3.6h-1.8v-0.6
				c0-0.2,0-0.4-0.3-0.4h-1.8v3.2h2.6c0.7,0,0.8-0.2,0.8-0.7V80h1.8v3.1h-8.8v-1.4h0.4c0.7,0,0.7-0.2,0.7-0.7V74
				c0-0.5,0-0.7-0.7-0.7h-0.4v-1.4H130.3z"/>
			<path class="st15" d="M136.8,71.9l1.9,6.3c0,0.1,0.2,0.5,0.2,0.6h0c0.2-0.7,1.5-5.1,2.1-7h5v1.4h-0.3c-0.8,0-0.8,0.1-0.8,0.9v6.6
				c0,0.7,0,0.8,0.8,0.8h0.3v1.4h-4.5v-1.4h0.3c0.8,0,0.8-0.2,0.8-0.8v-7.5h0l-2.8,9.1h-1.9l-2.7-9.1h0v7.6c0,0.8,0.2,0.8,0.8,0.8
				h0.3v1.4h-4.3v-1.4h0.3c0.8,0,0.8-0.2,0.8-0.8v-6.7c0-0.6-0.1-0.8-0.8-0.8h-0.3v-1.4H136.8z"/>
			<path class="st15" d="M147.3,71.9h4.9c0,0,1.4,0,2.1,0.3c1.7,0.6,1.9,2.4,1.9,3c0,1.3-0.6,2.4-1.7,2.9c-0.7,0.4-1.9,0.4-2.1,0.4
				h-1.7V81c0,0.5,0.1,0.7,0.7,0.7h0.5v1.4h-4.7v-1.4h0.4c0.7,0,0.7-0.2,0.7-0.7v-6.8c0-0.5,0-0.8-0.7-0.8h-0.4V71.9z M150.8,76.8
				h1.1c1.3,0,2-0.5,2-1.7c0-1.6-1.3-1.6-1.9-1.6h-1.2V76.8z"/>
			<path class="st15" d="M163.2,71.5c3.7,0,5.5,2.5,5.5,5.8c0,3.4-1.9,6.2-5.6,6.2s-5.6-2.6-5.6-5.8C157.5,74,159.6,71.5,163.2,71.5
				z M163.1,81.7c2.4,0,3-2.3,3-4.3c0-0.7,0-4-2.9-4c-2.1,0-3,1.8-3,4.2C160.1,79.6,160.7,81.7,163.1,81.7z"/>
			<path class="st15" d="M174,71.9v1.4h-0.6c-0.1,0-0.5,0-0.5,0.4c0,0.1,0,0.4,0.1,0.4l1.3,5.6h0l1.9-7.8h2.4l1.8,7.8h0l1.3-5.4
				c0-0.2,0.1-0.4,0.1-0.6c0-0.4-0.3-0.4-0.7-0.4h-0.3v-1.4h4.2v1.4c-0.7,0-1,0.1-1.3,1.1l-2.5,8.8h-2.4l-1.7-7.4h0l-1.8,7.4h-2.4
				l-2.3-8.6c-0.3-1.2-0.5-1.3-1.1-1.3h-0.3v-1.4H174z"/>
			<path class="st15" d="M194.5,71.9v2.9h-1.8v-0.6c0-0.6-0.2-0.6-0.8-0.6h-2.4v2.8h1.8c0.3,0,0.3,0,0.3-0.4v-0.5h1.8v3.6h-1.8v-0.6
				c0-0.2,0-0.4-0.3-0.4h-1.8v3.2h2.6c0.7,0,0.8-0.2,0.8-0.7V80h1.8v3.1h-8.8v-1.4h0.4c0.7,0,0.7-0.2,0.7-0.7V74
				c0-0.5,0-0.7-0.7-0.7h-0.4v-1.4H194.5z"/>
			<path class="st15" d="M196,71.9h5c1,0,1.7,0.1,2.1,0.3c1.6,0.6,1.8,2.2,1.8,2.9c0,1.9-1.2,2.5-1.6,2.8l1.5,2.9
				c0.4,0.8,0.8,0.9,1.3,0.9h0.3v1.4h-3.3l-2.2-4.7h-1.6V81c0,0.5,0.1,0.6,0.7,0.6h0.4v1.4H196v-1.4h0.4c0.7,0,0.7-0.2,0.7-0.7v-6.9
				c0-0.5,0-0.8-0.7-0.8H196V71.9z M199.4,76.8h1.2c0.7,0,1.9-0.1,1.9-1.7c0-1.6-1.4-1.6-1.9-1.6h-1.2V76.8z"/>
			<path class="st15" d="M211.7,71.9v1.4h-0.4c-0.7,0-0.7,0.2-0.7,0.9v6.7c0,0.6,0,0.8,0.7,0.8h0.4v1.4H207v-1.4h0.4
				c0.7,0,0.7-0.2,0.7-0.8v-6.8c0-0.6,0-0.7-0.7-0.7H207v-1.4H211.7z"/>
			<path class="st15" d="M217.1,71.9l3.7,7.3h0v-5.1c0-0.6,0-0.8-0.8-0.8h-0.3v-1.4h4.2v1.4h-0.4c-0.7,0-0.7,0.2-0.7,0.8v9h-2.5
				l-4.2-8.1h0v6c0,0.5,0,0.7,0.7,0.7h0.3v1.4H213v-1.4h0.4c0.7,0,0.7-0.2,0.7-0.7v-6.9c0-0.5,0-0.7-0.7-0.7H213v-1.4H217.1z"/>
			<path class="st15" d="M233,75c0-0.3,0-0.7-0.2-1c-0.3-0.6-1.1-0.8-1.7-0.8c-2.1,0-3.2,1.8-3.2,4.2c0,2.3,0.9,4.1,3.2,4.1
				c0.8,0,1.3-0.2,1.5-0.3v-1.6c0-0.4,0-0.7-0.7-0.7h-0.4v-1.4h4.6v1.4h-0.5c-0.5,0-0.7,0.1-0.7,0.7v2.9c-0.8,0.4-2.1,1-4,1
				c-2.2,0-3.3-0.6-4.1-1.5c-1.2-1.1-1.7-2.8-1.7-4.4c0-2.8,1.5-6.1,5.9-6.1c1.2,0,2.5,0.2,3.8,0.9v3.2H233V75z"/>
			<path class="st15" d="M252,71.9v3.3h-1.8v-0.9c0-0.6,0-0.7-0.7-0.7h-1.4v7.3c0,0.6,0,0.8,0.8,0.8h0.4v1.4h-4.9v-1.4h0.5
				c0.7,0,0.7-0.2,0.7-0.8v-7.3h-1.4c-0.7,0-0.7,0-0.7,0.7v0.9h-1.8v-3.3H252z"/>
			<path class="st15" d="M257.8,71.9v1.4h-0.4c-0.6,0-0.7,0.2-0.7,0.7v2.2h4V74c0-0.5,0-0.7-0.7-0.7h-0.4v-1.4h4.7v1.4H264
				c-0.6,0-0.8,0.1-0.8,0.7V81c0,0.6,0.1,0.7,0.8,0.7h0.3v1.4h-4.7v-1.4h0.4c0.7,0,0.7-0.2,0.7-0.7v-2.9h-4V81c0,0.3,0,0.6,0.7,0.6
				h0.4v1.4h-4.7v-1.4h0.4c0.7,0,0.7-0.2,0.7-0.8v-6.8c0-0.5,0-0.8-0.7-0.8h-0.4v-1.4H257.8z"/>
			<path class="st15" d="M274.2,71.9v2.9h-1.8v-0.6c0-0.6-0.2-0.6-0.8-0.6h-2.4v2.8h1.8c0.3,0,0.3,0,0.3-0.4v-0.5h1.8v3.6h-1.8v-0.6
				c0-0.2,0-0.4-0.3-0.4h-1.8v3.2h2.6c0.7,0,0.8-0.2,0.8-0.7V80h1.8v3.1h-8.8v-1.4h0.4c0.7,0,0.7-0.2,0.7-0.7V74
				c0-0.5,0-0.7-0.7-0.7h-0.4v-1.4H274.2z"/>
			<path class="st15" d="M290.5,71.9v3.3h-1.8v-0.9c0-0.6,0-0.7-0.7-0.7h-1.4v7.3c0,0.6,0,0.8,0.8,0.8h0.4v1.4h-4.9v-1.4h0.5
				c0.7,0,0.7-0.2,0.7-0.8v-7.3h-1.4c-0.7,0-0.7,0-0.7,0.7v0.9H280v-3.3H290.5z"/>
			<path class="st15" d="M296.3,71.9v1.4h-0.4c-0.7,0-0.7,0.2-0.7,0.9v6.7c0,0.6,0,0.8,0.7,0.8h0.4v1.4h-4.7v-1.4h0.4
				c0.7,0,0.7-0.2,0.7-0.8v-6.8c0-0.6,0-0.7-0.7-0.7h-0.4v-1.4H296.3z"/>
			<path class="st15" d="M307.8,71.9v3.3H306v-0.9c0-0.6,0-0.7-0.7-0.7h-1.4v7.3c0,0.6,0,0.8,0.8,0.8h0.4v1.4h-4.9v-1.4h0.5
				c0.7,0,0.7-0.2,0.7-0.8v-7.3H300c-0.7,0-0.7,0-0.7,0.7v0.9h-1.8v-3.3H307.8z"/>
			<path class="st15" d="M313.7,71.9v1.4h-0.5c-0.7,0-0.7,0.2-0.7,0.8v7.3h2.4c0.6,0,0.7-0.2,0.7-0.7v-0.9h1.9v3.3h-8.6v-1.4h0.4
				c0.7,0,0.7-0.3,0.7-0.7v-6.9c0-0.5,0-0.8-0.8-0.8h-0.3v-1.4H313.7z"/>
			<path class="st15" d="M327.2,71.9v2.9h-1.8v-0.6c0-0.6-0.2-0.6-0.8-0.6h-2.4v2.8h1.8c0.3,0,0.3,0,0.3-0.4v-0.5h1.8v3.6h-1.8v-0.6
				c0-0.2,0-0.4-0.3-0.4h-1.8v3.2h2.6c0.7,0,0.8-0.2,0.8-0.7V80h1.8v3.1h-8.8v-1.4h0.4c0.7,0,0.7-0.2,0.7-0.7V74
				c0-0.5,0-0.7-0.7-0.7h-0.4v-1.4H327.2z"/>
			<path class="st15" d="M337.9,71.9v1.4h-0.4c-0.7,0-0.7,0.2-0.7,0.9v6.7c0,0.6,0,0.8,0.7,0.8h0.4v1.4h-4.7v-1.4h0.4
				c0.7,0,0.7-0.2,0.7-0.8v-6.8c0-0.6,0-0.7-0.7-0.7h-0.4v-1.4H337.9z"/>
			<path class="st15" d="M343.4,71.9l3.7,7.3h0v-5.1c0-0.6,0-0.8-0.8-0.8h-0.3v-1.4h4.2v1.4h-0.4c-0.7,0-0.7,0.2-0.7,0.8v9h-2.5
				l-4.2-8.1h0v6c0,0.5,0,0.7,0.7,0.7h0.3v1.4h-4.2v-1.4h0.4c0.7,0,0.7-0.2,0.7-0.7v-6.9c0-0.5,0-0.7-0.7-0.7h-0.4v-1.4H343.4z"/>
			<path class="st15" d="M356.6,71.9c2.1,0,3.1,0.5,3.7,1c1.6,1.3,1.9,3.2,1.9,4.5c0,3.1-1.6,5.7-5.2,5.7h-5.6v-1.4h0.3
				c0.7,0,0.8-0.2,0.8-0.7v-6.8c0-0.6,0-0.8-0.7-0.8h-0.4v-1.4H356.6z M354.9,73.6v7.7h1.4c2.5,0,3.2-1.7,3.2-3.8
				c0-3.5-1.9-3.9-3.4-3.9H354.9z"/>
			<path class="st15" d="M368.1,71.9v1.4h-0.4c-0.7,0-0.7,0.2-0.7,0.8V79c0,1,0.1,2.5,2.2,2.5c2.2,0,2.2-1.7,2.2-2.5v-4.9
				c0-0.6,0-0.8-0.7-0.8h-0.4v-1.4h4.3v1.4h-0.4c-0.7,0-0.7,0.2-0.7,0.8V79c0,1.9-0.5,4.4-4.4,4.4c-3.2,0-4.6-1.4-4.6-4.3v-5.1
				c0-0.5,0-0.8-0.7-0.8h-0.4v-1.4H368.1z"/>
			<path class="st15" d="M383.2,75.1h-1.9v-0.5c0-0.5,0-1.5-1.4-1.5c-1.3,0-1.5,0.9-1.5,1.3c0,1,1.1,1.5,2.6,2.2
				c2,0.9,2.8,1.9,2.8,3.4c0,1.5-0.9,2.5-1.6,2.9c-1.1,0.5-2.5,0.5-2.8,0.5c-1.6,0-2.7-0.4-3.4-0.7v-3.2h2v0.6c0,0.4,0,1.7,1.7,1.7
				c1,0,1.7-0.6,1.7-1.5c0-1-0.6-1.3-2.2-2.2c-1.5-0.8-3.1-1.7-3.1-3.6c0-0.7,0.3-3.1,3.9-3.1c1.2,0,2.3,0.2,3.4,0.7V75.1z"/>
			<path class="st15" d="M395.2,71.9v3.3h-1.8v-0.9c0-0.6,0-0.7-0.7-0.7h-1.4v7.3c0,0.6,0,0.8,0.8,0.8h0.4v1.4h-4.9v-1.4h0.5
				c0.7,0,0.7-0.2,0.7-0.8v-7.3h-1.4c-0.7,0-0.7,0-0.7,0.7v0.9h-1.8v-3.3H395.2z"/>
			<path class="st15" d="M396.3,71.9h5c1,0,1.7,0.1,2.1,0.3c1.6,0.6,1.8,2.2,1.8,2.9c0,1.9-1.2,2.5-1.6,2.8l1.5,2.9
				c0.4,0.8,0.8,0.9,1.3,0.9h0.3v1.4h-3.3l-2.2-4.7h-1.6V81c0,0.5,0.1,0.6,0.7,0.6h0.4v1.4h-4.5v-1.4h0.4c0.7,0,0.7-0.2,0.7-0.7
				v-6.9c0-0.5,0-0.8-0.7-0.8h-0.4V71.9z M399.7,76.8h1.2c0.7,0,1.9-0.1,1.9-1.7c0-1.6-1.4-1.6-1.9-1.6h-1.2V76.8z"/>
			<path class="st15" d="M410.9,71.9v1.4h-0.4c-0.2,0-0.4,0.1-0.4,0.3c0,0.1,0.1,0.3,0.1,0.4c0,0,0,0.1,0.1,0.1l1.5,2.4l1.5-2.3
				c0-0.1,0.3-0.4,0.3-0.6c0-0.3-0.3-0.3-0.6-0.3h-0.3v-1.4h4.3v1.4c-0.5,0-0.7,0-1.3,0.8l-3,4.5V81c0,0.5,0.1,0.7,0.8,0.7h0.4v1.4
				h-4.8v-1.4h0.4c0.7,0,0.7-0.2,0.7-0.7v-2.3l-3-4.6c-0.5-0.7-0.7-0.7-1.2-0.7v-1.4H410.9z"/>
		</g>
	</g>
</g>
</svg>
